<?xml version="1.0" encoding="UTF-8"?>
<svg id="Layer_1" xmlns="http://www.w3.org/2000/svg" version="1.1" viewBox="0 0 800 800">
  <!-- Generator: Adobe Illustrator 29.2.1, SVG Export Plug-In . SVG Version: 2.1.0 Build 116)  -->
  <defs>
    <style>
      .st0 {
        fill: #fff;
      }

      .st1 {
        fill: #4945ff;
      }
    </style>
  </defs>
  <path class="st1" d="M39,282c0-118,0-176.9,36.6-213.5,36.6-36.5,95.5-36.5,213.3-36.5h221.2c117.8,0,176.7,0,213.3,36.6,36.6,36.6,36.6,95.5,36.6,213.3v221.2c0,117.8,0,176.7-36.6,213.3s-95.5,36.6-213.3,36.6h-221.2c-117.8,0-176.7,0-213.3-36.6-36.6-36.6-36.6-95.5-36.6-213.3v-221.2h0Z"/>
  <path class="st0" d="M247.1,437.9l25.7,27.9,25.7,27.9c1.2,1.3,1.7,2.9,1.6,4.4,0,1.6-.7,3.1-2,4.3-6.1,5.6-17,16-25.8,26.1-8.8,10.1-15.5,20-13,24.4s9.2,12.5,16.8,21.3c7.6,8.7,15.8,17.8,21.1,23.5,1.5,1.6,2.2,3.7,2.3,5.8,0,2.1-.7,4.1-2.2,5.8-5.1,5.5-13,14.2-19.9,22.3-6.9,8.1-12.9,15.6-14.3,18.8-1.3,3-2.2,5.6-2.8,7.9-.6,2.2-1,4-1.2,5.5s-.8,1.6-1.6,1.9c-.8.3-1.7.1-2.5-.5-5.3-5.1-16.1-14.1-26.4-23.7-10.3-9.6-20.2-19.9-23.7-27.5-4.4-9.4-2.6-17.1.3-22.4,2.9-5.3,6.9-8.3,6.9-8.3l12.5-11.8,12.5-11.8c1.6-1.5,2.3-3.5,2.3-5.4,0-2-.9-3.9-2.6-5.3-6-5.2-15.3-13.8-22.8-23.3-7.5-9.5-13.2-19.9-12.1-28.8,1.7-13.4,12.9-28.1,23.8-39.4,10.8-11.3,21.2-19.3,21.2-19.3Z"/>
  <path class="st0" d="M302.5,411.6c2.1-6.5,4.7-14,7.7-22.4,3-8.3,6.3-17.4,10-26.9-20.4-5.9-43.8-16.5-60.6-35.5-16.8-19-26.9-46.3-20.6-85.7,3.1-19.5,9.6-38.1,18.4-55.7,8.8-17.6,19.9-34.1,32.1-49.4,1.2-1.5.8-3.2-.3-4.2-1.1-1-2.8-1.3-4.2,0-17.5,16.7-39.3,41.6-56.2,74.2-16.9,32.6-28.8,73-26.6,120.7,1.5,31.8,13,55.6,30.1,73.2,17.1,17.6,39.8,29,63.7,36.1.8-4.1,1.8-8.2,2.8-12.3,1.1-4.1,2.3-8.2,3.6-12.3Z"/>
  <path class="st0" d="M595.6,466.7c-.6-.6-1.4-.7-2.1-.6-.7.1-1.4.6-1.7,1.4-4.4,9.9-19.9,42-46.5,71.6-26.6,29.6-64.5,56.7-113.6,56.5-26.1,0-44.8-6.4-58.1-15.9-11.1-7.9-18.4-18.2-23.2-28.8,7.5,4.7,16.4,8.4,27.2,10.3,34.2,6.1,62.6-12.2,84.4-36.1,21.8-23.9,36.8-49.8,44.2-66.3.6-1.4,0-2.7-.9-3.4-1-.7-2.4-.8-3.5.2-20.1,18.7-37.8,31.3-54.8,37.4-17,6.1-33.1,5.7-50-1.3-13.8-5.8-22.4-16.6-27.9-29.8-2.1-5-3.6-10.4-4.8-15.9,1.1,0,2.4.2,3.5.2,8.5,0,16.6-.2,23.9-.8,13.6-1.1,26.9-3.6,39.8-7.5,12.9-3.9,25.4-9.3,37.2-16.2,26.6-15.4,60.3-40.2,86.6-80,26.2-39.7,44.9-94.4,41.4-169.5,0-1.9-1.5-2.9-3-2.9-1.5,0-2.9.9-3.1,2.7-3.7,36.3-15.2,86.6-48.4,127.4-33,40.5-87.3,71.5-176.6,70.2,4.1-14.8,10-28.9,16.7-41.6,13.7-26.1,30.4-46.8,40.1-57.7,5.6-6.3,10.8-12.8,15.8-19.6,4.9-6.8,9.6-13.8,13.8-21,2.5-4.3,5-8.8,7.1-13.3,2.2-4.4,4-8.9,5.4-13,4.1-12.5-9.5-30.6-24.1-45.6-14.6-15-30.3-26.8-30.3-26.8l-28,29.2-28,29.2c-1,1.1-1.5,2.4-1.4,3.8s.7,2.7,1.8,3.6c17.6,14.5,33,29.8,42.1,44.4,9.1,14.7,11.9,28.8,4.4,40.9-13.2,21.4-30,48.7-44.7,74.3-14.7,25.5-27.3,49.4-32,63.8-3.1,9.6-5.5,19.4-6.9,29.4-1.5,10-2,20-1.7,30.1.6,16.9,3.8,32.3,13,48.2,3.8,6.6,8.7,12.6,14.8,17.7l-5.7,10.4-8.6,15.7c-11.7,21.3-2.2,80.2,58.2,93,1.1.2,11.7,1.7,14.4,1.8,47.5,2.1,97.8-38.4,112.9-54.7,12.7-13.7,24.2-28.4,34.4-43.8,10.2-15.4,19.2-31.5,26.9-48.2,4-8.6,8.2-18.1,11.9-27.1,3.7-9,6.8-17.4,8.7-24,.1-.4.1-.9,0-1.3s-.3-.8-.7-1.1Z"/>
</svg>